<svg height="917" width="1324" viewBox="-1124 -95 1324 917" style="background-color:transparent;" preserveAspectRatio="xMinYMin meet" xmlns:xlink="http://www.w3.org/1999/xlink" xmlns="http://www.w3.org/2000/svg"><defs><style type="text/css">.svg-txt-center tspan {text-anchor: middle;}.svg-txt-right tspan {text-anchor: end;}</style></defs><g transform="translate(0,0)"><g transform="matrix(1,0,0,1,-707,-85)"><path style="fill:none;stroke:#333333;stroke-width:3.0;;" d="m2.79042588,-2.17308l188.64252,-0.13152194285714286c4.6843236,0 7.3224756,3.788510828571429 7.3224756,10.514250285714287c-0.568854,53.110996285714286 1.76890428,115.36314285714286 1.51066476,182.98334285714287c0.16227288,6.721935714285714 -1.88278992,13.225255714285714 -6.5671056000000005,13.225255714285714l-188.135244,-4.879912114285715c-4.6843236,0 -4.6787796,-1.6192345714285714 -4.6787796,-8.344638571428572l-2.39560596,-185.5652257142857c0,-6.725745142857143 -0.38322108,-7.801880285714286 4.3011144,-7.801880285714286z"/></g><text style="font-weight:Normal; font-size: 12px; text-anchor: middle; font-family: arial,helvetica,sans-serif; fill: #333333;" class="" y="-61" x="-608">«struct»</text><text style="font-weight:bold; font-size: 12px; text-anchor: middle; font-family: arial,helvetica,sans-serif; fill: #333333;" class="" y="-44" x="-608">Feedback</text><line style="stroke:#333333;stroke-width:2.0;stroke-dasharray:none;" y2="-30" x2="-510" y1="-30" x1="-706"/><text style="font-weight:Normal; font-size: 12px; text-anchor: start; font-family: arial,helvetica,sans-serif; fill: #333333;" class="" y="-10" x="-697">id int</text><text style="font-weight:Normal; font-size: 12px; text-anchor: start; font-family: arial,helvetica,sans-serif; fill: #333333;" class="" y="7" x="-697">rating int</text><text style="font-weight:Normal; font-size: 12px; text-anchor: start; font-family: arial,helvetica,sans-serif; fill: #333333;" class="" y="24" x="-697">date date.Date</text><text style="font-weight:Normal; font-size: 12px; text-anchor: start; font-family: arial,helvetica,sans-serif; fill: #333333;" class="" y="41" x="-697">time time.Time</text><text style="font-weight:Normal; font-size: 12px; text-anchor: start; font-family: arial,helvetica,sans-serif; fill: #333333;" class="" y="58" x="-697">slug string</text><line style="stroke:#333333;stroke-width:2.0;stroke-dasharray:none;" y2="72" x2="-510" y1="72" x1="-706"/><text style="font-weight:Normal; font-size: 12px; text-anchor: start; font-family: arial,helvetica,sans-serif; fill: #333333;" class="" y="92" x="-697">sendFeedback(rating)</text></g><g transform="translate(0,0)"><g transform="matrix(1,0,0,1,-1008,174)"><path style="fill:none;stroke:#333333;stroke-width:3.0;;" d="m137.579976,-0.41495999999999994l-132.43086,-0.025114742857142856c-3.2884897999999994,0 -5.140497999999999,0.7234342285714286 -5.140497999999999,2.0077462857142856c0.39934699999999995,10.141798285714284 -1.2418037599999998,22.029142857142855 -1.06052274,34.941542857142856c-0.11391327999999999,1.283585714285714 1.3217565599999999,2.525425714285714 4.6102408,2.525425714285714l132.074742,-0.9318425142857143c3.2884897999999994,0 3.2845978,-0.3092005714285714 3.2845978,-1.593448571428571l1.6817721199999998,-35.43456571428571c0,-1.2843131428571428 0.26902338,-1.4898062857142855 -3.0194692,-1.4898062857142855z"/></g><text style="font-weight:bold; font-size: 12px; text-anchor: middle; font-family: arial,helvetica,sans-serif; fill: #333333;" class="" y="198" x="-939">Save Data to DB</text><line style="stroke:#333333;stroke-width:2;stroke-dasharray:8,2;" y2="257" x2="-939" y1="212" x1="-939"/></g><g transform="translate(0,0)"><g transform="matrix(1,0,0,1,-705,384)"><path style="fill:none;stroke:#333333;stroke-width:3.0;;" d="m2.77633282,-1.32132l187.68978,-0.07997062857142857c4.660665399999999,0 7.2854934,2.303566885714286 7.2854934,6.393086857142857c-0.565981,32.293620857142855 1.75997042,70.14542857142857 1.50303514,111.26122857142857c0.16145332,4.087207142857143 -1.8732808799999998,8.041487142857143 -6.5339384,8.041487142857143l-187.18506599999998,-2.967182742857143c-4.660665399999999,0 -4.6551494,-0.9845597142857143 -4.6551494,-5.073875714285714l-2.38350694,-112.83111714285714c0,-4.089523428571429 -0.38128562,-4.743856857142857 4.2793916,-4.743856857142857z"/></g><text style="font-weight:Normal; font-size: 11px; text-anchor: middle; font-family: arial,helvetica,sans-serif; fill: #333333;" class="" y="406" x="-607">«API»</text><text style="font-weight:bold; font-size: 11px; text-anchor: middle; font-family: arial,helvetica,sans-serif; fill: #333333;" class="" y="422" x="-607">Feedback</text><line style="stroke:#333333;stroke-width:2.0;stroke-dasharray:none;" y2="436" x2="-509" y1="436" x1="-704"/><text style="font-weight:Normal; font-size: 11px; text-anchor: start; font-family: arial,helvetica,sans-serif; fill: #333333;" class="" y="454" x="-695">GET   /api/feedback</text><text style="font-weight:Normal; font-size: 11px; text-anchor: start; font-family: arial,helvetica,sans-serif; fill: #333333;" class="" y="470" x="-695">POST /api/feedback</text><text style="font-weight:Normal; font-size: 11px; text-anchor: start; font-family: arial,helvetica,sans-serif; fill: #333333;" class="" y="486" x="-695">DELETE /api/feedback</text><text style="font-weight:Normal; font-size: 11px; text-anchor: start; font-family: arial,helvetica,sans-serif; fill: #333333;" class="" y="502" x="-695"/></g><g transform="translate(0,0)"><path style="fill:none;stroke:#333333;stroke-width:2;;" d="M-819,444 -709,444"/><path style="fill:rgb(51,51,51);stroke:#333333;stroke-width:2;;visibility: visible;" d="M-709,444 -726.3205080756887,434 -726.3205080756887,454Z"/><text style="font-weight:Normal; font-size: 12px; text-anchor: middle; font-family: sans-serif; fill: #333333;" class="" y="429" x="-723"/><text style="font-weight:Normal; font-size: 12px; text-anchor: start; font-family: sans-serif; fill: #333333;" class="" y="438" x="-764"/><text style="font-weight:Normal; font-size: 12px; text-anchor: middle; font-family: sans-serif; fill: #333333;" class="" y="429" x="-807"/></g><g transform="translate(0,0)"><g transform="matrix(1,0,0,1,-705,146)"><path style="fill:none;stroke:#333333;stroke-width:3.0;;" d="m2.76223976,-1.68168l186.73704,-0.1017808c4.637007199999999,0 7.2485112,2.9318124000000005 7.2485112,8.136656c-0.5631079999999999,41.100972 1.75103656,89.27600000000001 1.49540552,141.60520000000002c0.16063376,5.2019 -1.8637718399999998,10.234620000000001 -6.5007712,10.234620000000001l-186.23488799999998,-3.7764144000000006c-4.637007199999999,0 -4.6315192000000005,-1.253076 -4.6315192000000005,-6.45766l-2.3714079200000002,-143.60324c0,-5.204848 -0.37935016,-6.037636000000001 4.2576688,-6.037636000000001z"/></g><text style="font-weight:Normal; font-size: 12px; text-anchor: middle; font-family: arial,helvetica,sans-serif; fill: #333333;" class="" y="170" x="-607">«schema»</text><text style="font-weight:bold; font-size: 12px; text-anchor: middle; font-family: arial,helvetica,sans-serif; fill: #333333;" class="" y="187" x="-607">Feedback</text><line style="stroke:#333333;stroke-width:2.0;stroke-dasharray:none;" y2="201" x2="-510" y1="201" x1="-704"/><text style="font-weight:Normal; font-size: 12px; text-anchor: start; font-family: arial,helvetica,sans-serif; fill: #333333;" class="" y="221" x="-695">id SERIAL</text><text style="font-weight:Normal; font-size: 12px; text-anchor: start; font-family: arial,helvetica,sans-serif; fill: #333333;" class="" y="238" x="-695">rating SMALLINT</text><text style="font-weight:Normal; font-size: 12px; text-anchor: start; font-family: arial,helvetica,sans-serif; fill: #333333;" class="" y="255" x="-695">date DATE</text><text style="font-weight:Normal; font-size: 12px; text-anchor: start; font-family: arial,helvetica,sans-serif; fill: #333333;" class="" y="272" x="-695">time TIME</text><text style="font-weight:Normal; font-size: 12px; text-anchor: start; font-family: arial,helvetica,sans-serif; fill: #333333;" class="" y="289" x="-695">slug VARCHAR(60)</text><text style="font-weight:Normal; font-size: 12px; text-anchor: start; font-family: arial,helvetica,sans-serif; fill: #333333;" class="" y="306" x="-695"/></g><g transform="translate(0,0)"><path style="fill:none;stroke:#333333;stroke-width:2;;" d="M-865,197 -708,199"/><path style="fill:rgb(51,51,51);stroke:#333333;stroke-width:2;;visibility: visible;" d="M-708,199 -725.1917246745553,188.78018577887605 -725.4464810747285,208.77856319247064Z"/><text style="font-weight:Normal; font-size: 12px; text-anchor: middle; font-family: sans-serif; fill: #333333;" class="" y="185" x="-722"/><text style="font-weight:Normal; font-size: 12px; text-anchor: start; font-family: sans-serif; fill: #333333;" class="" y="198" x="-787"/><text style="font-weight:Normal; font-size: 12px; text-anchor: middle; font-family: sans-serif; fill: #333333;" class="" y="182" x="-853"/></g><g transform="translate(0,0)"><g transform="matrix(1,0,0,1,-991,716)"><path style="fill:none;stroke:#333333;stroke-width:3.0;;" d="m1.4797713,-0.9718799999999999l100.0377,-0.058821371428571426c2.484111,0 3.883131,1.6943591142857144 3.883131,4.702353142857143c-0.301665,23.75315914285714 0.9380553,51.59457142857142 0.8011101,81.83677142857142c0.0860538,3.006292857142857 -0.9984492,5.914812857142857 -3.482556,5.914812857142857l-99.76868999999999,-2.182473257142857c-2.484111,0 -2.4811710000000002,-0.7241802857142856 -2.4811710000000002,-3.732024285714285l-1.2703971,-82.99148285714284c0,-3.007996571428571 -0.2032233,-3.489283142857143 2.2808940000000004,-3.489283142857143z"/></g><text style="font-weight:bold; font-size: 9px; text-anchor: middle; font-family: arial,helvetica,sans-serif; fill: #333333;" class="" y="735" x="-939">SPAs</text><line style="stroke:#333333;stroke-width:2.0;stroke-dasharray:none;" y2="748" x2="-887" y1="748" x1="-990"/><text style="font-weight:Normal; font-size: 9px; text-anchor: start; font-family: arial,helvetica,sans-serif; fill: #333333;" class="" y="763" x="-981">React</text><text style="font-weight:Normal; font-size: 9px; text-anchor: start; font-family: arial,helvetica,sans-serif; fill: #333333;" class="" y="777" x="-981">Vue</text><text style="font-weight:Normal; font-size: 9px; text-anchor: start; font-family: arial,helvetica,sans-serif; fill: #333333;" class="" y="791" x="-981">Angular</text></g><g transform="translate(0,0)"><g transform="matrix(1,0,0,1,-1109,716)"><path style="fill:none;stroke:#333333;stroke-width:3.0;;" d="m1.4797713,-0.95004l100.0377,-0.05749954285714286c2.484111,0 3.883131,1.6562836285714286 3.883131,4.5966822857142855c-0.301665,23.219380285714287 0.9380553,50.43514285714286 0.8011101,79.99774285714285c0.0860538,2.9387357142857145 -0.9984492,5.781895714285715 -3.482556,5.781895714285715l-99.76868999999999,-2.1334289142857146c-2.484111,0 -2.4811710000000002,-0.7079065714285714 -2.4811710000000002,-3.648158571428571l-1.2703971,-81.12650571428571c0,-2.940401142857143 -0.2032233,-3.410872285714286 2.2808940000000004,-3.410872285714286z"/></g><text style="font-weight:bold; font-size: 9px; text-anchor: middle; font-family: arial,helvetica,sans-serif; fill: #333333;" class="" y="735" x="-1057">Bots</text><line style="stroke:#333333;stroke-width:2.0;stroke-dasharray:none;" y2="748" x2="-1005" y1="748" x1="-1108"/><text style="font-weight:Normal; font-size: 9px; text-anchor: start; font-family: arial,helvetica,sans-serif; fill: #333333;" class="" y="763" x="-1099">Slack</text><text style="font-weight:Normal; font-size: 9px; text-anchor: start; font-family: arial,helvetica,sans-serif; fill: #333333;" class="" y="777" x="-1099">Messenger</text><text style="font-weight:Normal; font-size: 9px; text-anchor: start; font-family: arial,helvetica,sans-serif; fill: #333333;" class="" y="791" x="-1099">Twitter</text></g><g transform="translate(0,0)"><g transform="matrix(1,0,0,1,-874,715)"><path style="fill:none;stroke:#333333;stroke-width:3.0;;" d="m1.4797713,-1.00464l100.0377,-0.060804114285714285c2.484111,0 3.883131,1.751472342857143 3.883131,4.860859428571429c-0.301665,24.553827428571427 0.9380553,53.33371428571429 0.8011101,84.59531428571428c0.0860538,3.1076285714285716 -0.9984492,6.1141885714285715 -3.482556,6.1141885714285715l-99.76868999999999,-2.2560397714285716c-2.484111,0 -2.4811710000000002,-0.7485908571428571 -2.4811710000000002,-3.8578228571428568l-1.2703971,-85.78894857142856c0,-3.1093897142857143 -0.2032233,-3.6068994285714284 2.2808940000000004,-3.6068994285714284z"/></g><text style="font-weight:bold; font-size: 9px; text-anchor: middle; font-family: arial,helvetica,sans-serif; fill: #333333;" class="" y="734" x="-822">Mobile</text><line style="stroke:#333333;stroke-width:2.0;stroke-dasharray:none;" y2="747" x2="-770" y1="747" x1="-873"/><text style="font-weight:Normal; font-size: 9px; text-anchor: start; font-family: arial,helvetica,sans-serif; fill: #333333;" class="" y="762" x="-864">iOS</text><text style="font-weight:Normal; font-size: 9px; text-anchor: start; font-family: arial,helvetica,sans-serif; fill: #333333;" class="" y="776" x="-864">Android</text></g><g transform="translate(0,0)"><path style="fill:none;stroke:#333333;stroke-width:2;;" d="M185,304 C185,304 185,304  185,304"/><text style="font-weight:Normal; font-size: 12px; text-anchor: middle; font-family: sans-serif; fill: #333333;" class="" y="288" x="200"/><text style="font-weight:Normal; font-size: 12px; text-anchor: start; font-family: sans-serif; fill: #333333;" class="" y="304" x="185"/><text style="font-weight:Normal; font-size: 12px; text-anchor: middle; font-family: sans-serif; fill: #333333;" class="" y="318" x="200"/></g><g transform="translate(0,0)"><g transform="matrix(1,0,0,1,-1011,630)"><path style="fill:none;stroke:#333333;stroke-width:3.0;;" d="m143.51868,-0.41495999999999994l-138.1473,-0.025114742857142856c-3.430439,0 -5.3623899999999995,0.7234342285714286 -5.3623899999999995,2.0077462857142856c0.416585,10.141798285714284 -1.2954067999999999,22.029142857142855 -1.1063007,34.941542857142856c-0.11883039999999999,1.283585714285714 1.3788108,2.525425714285714 4.809244,2.525425714285714l137.77580999999998,-0.9318425142857143c3.430439,0 3.4263790000000003,-0.3092005714285714 3.4263790000000003,-1.593448571428571l1.7543666,-35.43456571428571c0,-1.2843131428571428 0.2806359,-1.4898062857142855 -3.1498060000000003,-1.4898062857142855z"/></g><text style="font-weight:bold; font-size: 12px; text-anchor: middle; font-family: arial,helvetica,sans-serif; fill: #333333;" class="" y="654" x="-939">Integrate Live API</text><line style="stroke:#333333;stroke-width:2;stroke-dasharray:8,2;" y2="667" x2="-939" y1="668" x1="-939"/></g><g transform="translate(0,0)"><path style="fill:none;stroke:#333333;stroke-width:2;stroke-dasharray:4,3;;" d="M-995,20 -995,16"/><text style="font-weight:Normal; font-size: 12px; text-anchor: middle; font-family: sans-serif; fill: #333333;" class="" y="2" x="-980"/><text style="font-weight:Normal; font-size: 12px; text-anchor: start; font-family: sans-serif; fill: #333333;" class="" y="12" x="-995"/><text style="font-weight:Normal; font-size: 12px; text-anchor: middle; font-family: sans-serif; fill: #333333;" class="" y="32" x="-980"/></g><g transform="translate(0,0)"><g transform="matrix(1,0,0,1,-1012,-43)"><path style="fill:none;stroke:#333333;stroke-width:3.0;;" d="m145.498248,-0.41495999999999994l-140.05278,-0.025114742857142856c-3.4777553999999995,0 -5.436354,0.7234342285714286 -5.436354,2.0077462857142856c0.422331,10.141798285714284 -1.31327448,22.029142857142855 -1.12156002,34.941542857142856c-0.12046944,1.283585714285714 1.3978288799999998,2.525425714285714 4.8755784,2.525425714285714l139.676166,-0.9318425142857143c3.4777553999999995,0 3.4736394,-0.3092005714285714 3.4736394,-1.593448571428571l1.7785647599999999,-35.43456571428571c0,-1.2843131428571428 0.28450674,-1.4898062857142855 -3.1932516000000004,-1.4898062857142855z"/></g><text style="font-weight:bold; font-size: 12px; text-anchor: middle; font-family: arial,helvetica,sans-serif; fill: #333333;" class="" y="-19" x="-939">Model the Domain</text><line style="stroke:#333333;stroke-width:2;stroke-dasharray:8,2;" y2="68" x2="-939" y1="-5" x1="-939"/></g><g transform="translate(0,0)"><g transform="matrix(1,0,0,1,-1036,70)"><path style="fill:none;stroke:#333333;stroke-width:3.0;;" d="m192.01809599999999,-0.41495999999999994l-184.83156,-0.025114742857142856c-4.5896908,0 -7.174507999999999,0.7234342285714286 -7.174507999999999,2.0077462857142856c0.557362,10.141798285714284 -1.7331649599999999,22.029142857142855 -1.48015404,34.941542857142856c-0.15898688,1.283585714285714 1.84475376,2.525425714285714 6.4344368,2.525425714285714l184.334532,-0.9318425142857143c4.5896908,0 4.5842588,-0.3092005714285714 4.5842588,-1.593448571428571l2.3472215199999997,-35.43456571428571c0,-1.2843131428571428 0.37547147999999997,-1.4898062857142855 -4.2142232,-1.4898062857142855z"/></g><text style="font-weight:bold; font-size: 12px; text-anchor: middle; font-family: arial,helvetica,sans-serif; fill: #333333;" class="" y="94" x="-939">Expose Function(s) via CLI</text><line style="stroke:#333333;stroke-width:2;stroke-dasharray:8,2;" y2="175" x2="-939" y1="108" x1="-939"/></g><g transform="translate(0,0)"><g transform="matrix(1,0,0,1,-1054,425)"><path style="fill:none;stroke:#333333;stroke-width:3.0;;" d="m228.64010399999998,-0.41495999999999994l-220.08294,-0.025114742857142856c-5.4650441999999995,0 -8.542842,0.7234342285714286 -8.542842,2.0077462857142856c0.663663,10.141798285714284 -2.06371704,22.029142857142855 -1.76245146,34.941542857142856c-0.18930912,1.283585714285714 2.19658824,2.525425714285714 7.6616232,2.525425714285714l219.491118,-0.9318425142857143c5.4650441999999995,0 5.4585762,-0.3092005714285714 5.4585762,-1.593448571428571l2.79488748,-35.43456571428571c0,-1.2843131428571428 0.44708201999999997,-1.4898062857142855 -5.017966800000001,-1.4898062857142855z"/></g><text style="font-weight:bold; font-size: 12px; text-anchor: middle; font-family: arial,helvetica,sans-serif; fill: #333333;" class="" y="449" x="-939">Expose Function via API Endpoint</text><line style="stroke:#333333;stroke-width:2;stroke-dasharray:8,2;" y2="529" x2="-939" y1="463" x1="-939"/></g><g transform="translate(0,0)"><g transform="matrix(1,0,0,1,-1047,256)"><path style="fill:none;stroke:#333333;stroke-width:3.0;;" d="m213.793344,-0.41495999999999994l-205.79184,-0.025114742857142856c-5.1101712,0 -7.988112,0.7234342285714286 -7.988112,2.0077462857142856c0.620568,10.141798285714284 -1.92970944,22.029142857142855 -1.6480065600000002,34.941542857142856c-0.17701632,1.283585714285714 2.05395264,2.525425714285714 7.1641152,2.525425714285714l205.238448,-0.9318425142857143c5.1101712,0 5.104123200000001,-0.3092005714285714 5.104123200000001,-1.593448571428571l2.61340128,-35.43456571428571c0,-1.2843131428571428 0.41805072,-1.4898062857142855 -4.692124800000001,-1.4898062857142855z"/></g><text style="font-weight:bold; font-size: 12px; text-anchor: middle; font-family: arial,helvetica,sans-serif; fill: #333333;" class="" y="280" x="-939">Write Tests &amp; Benchmark Code</text><line style="stroke:#333333;stroke-width:2;stroke-dasharray:8,2;" y2="339" x2="-939" y1="294" x1="-939"/></g><g transform="translate(0,0)"><g transform="matrix(1,0,0,1,-1051,340)"><path style="fill:none;stroke:#333333;stroke-width:3.0;;" d="m222.70139999999998,-0.41495999999999994l-214.3665,-0.025114742857142856c-5.3230949999999995,0 -8.32095,0.7234342285714286 -8.32095,2.0077462857142856c0.646425,10.141798285714284 -2.0101139999999997,22.029142857142855 -1.7166735000000002,34.941542857142856c-0.184392,1.283585714285714 2.139534,2.525425714285714 7.46262,2.525425714285714l213.79004999999998,-0.9318425142857143c5.3230949999999995,0 5.316795,-0.3092005714285714 5.316795,-1.593448571428571l2.722293,-35.43456571428571c0,-1.2843131428571428 0.43546949999999995,-1.4898062857142855 -4.887630000000001,-1.4898062857142855z"/></g><text style="font-weight:bold; font-size: 12px; text-anchor: middle; font-family: arial,helvetica,sans-serif; fill: #333333;" class="" y="364" x="-939">Refactor Based on Perforrmance</text><line style="stroke:#333333;stroke-width:2;stroke-dasharray:8,2;" y2="423" x2="-939" y1="378" x1="-939"/></g><g transform="translate(0,0)"><path style="fill:none;stroke:#333333;stroke-width:2;;" d="M-861,-24 -710,-25"/><path style="fill:rgb(51,51,51);stroke:#333333;stroke-width:2;;visibility: visible;" d="M-710,-25 -727.3863519825053,-34.885077882365714 -727.253904555769,-14.885516445195377Z"/><text style="font-weight:Normal; font-size: 12px; text-anchor: middle; font-family: sans-serif; fill: #333333;" class="" y="-39" x="-724"/><text style="font-weight:Normal; font-size: 12px; text-anchor: start; font-family: sans-serif; fill: #333333;" class="" y="-31" x="-786"/><text style="font-weight:Normal; font-size: 12px; text-anchor: middle; font-family: sans-serif; fill: #333333;" class="" y="-38" x="-850"/></g><g transform="translate(0,0)"><path style="fill:none;stroke:#333333;stroke-width:2;stroke-dasharray:4,3;;" d="M-939,670 C-939,692 -1057,692  -1057,714"/><text style="font-weight:Normal; font-size: 12px; text-anchor: middle; font-family: sans-serif; fill: #333333;" class="" y="722" x="-1037"/><text style="font-weight:Normal; font-size: 12px; text-anchor: start; font-family: sans-serif; fill: #333333;" class="" y="692" x="-998"/><text style="font-weight:Normal; font-size: 12px; text-anchor: middle; font-family: sans-serif; fill: #333333;" class="" y="688" x="-946"/></g><g transform="translate(0,0)"><path style="fill:none;stroke:#333333;stroke-width:2;stroke-dasharray:4,3;;" d="M-939,670 C-939,691.5 -822,691.5  -822,713"/><text style="font-weight:Normal; font-size: 12px; text-anchor: middle; font-family: sans-serif; fill: #333333;" class="" y="693" x="-832"/><text style="font-weight:Normal; font-size: 12px; text-anchor: start; font-family: sans-serif; fill: #333333;" class="" y="691" x="-880"/><text style="font-weight:Normal; font-size: 12px; text-anchor: middle; font-family: sans-serif; fill: #333333;" class="" y="659" x="-920"/></g><g transform="translate(0,0)"><path style="fill:none;stroke:#333333;stroke-width:2;stroke-dasharray:4,3;;" d="M-939,670 C-939,692 -939,692  -939,714"/><text style="font-weight:Normal; font-size: 12px; text-anchor: middle; font-family: sans-serif; fill: #333333;" class="" y="698" x="-924"/><text style="font-weight:Normal; font-size: 12px; text-anchor: start; font-family: sans-serif; fill: #333333;" class="" y="692" x="-939"/><text style="font-weight:Normal; font-size: 12px; text-anchor: middle; font-family: sans-serif; fill: #333333;" class="" y="684" x="-924"/></g><g transform="translate(0,0)"><g transform="matrix(1,0,0,1,-996,529)"><path style="fill:none;stroke:#333333;stroke-width:3.0;;" d="m113.82515999999998,-0.41495999999999994l-109.56509999999999,-0.025114742857142856c-2.7206929999999994,0 -4.252929999999999,0.7234342285714286 -4.252929999999999,2.0077462857142856c0.330395,10.141798285714284 -1.0273915999999998,22.029142857142855 -0.8774109,34.941542857142856c-0.09424479999999999,1.283585714285714 1.0935396,2.525425714285714 3.814228,2.525425714285714l109.27046999999999,-0.9318425142857143c2.7206929999999994,0 2.717473,-0.3092005714285714 2.717473,-1.593448571428571l1.3913942,-35.43456571428571c0,-1.2843131428571428 0.22257329999999997,-1.4898062857142855 -2.498122,-1.4898062857142855z"/></g><text style="font-weight:bold; font-size: 12px; text-anchor: middle; font-family: arial,helvetica,sans-serif; fill: #333333;" class="" y="553" x="-939">Deploy Live API</text><line style="stroke:#333333;stroke-width:2;stroke-dasharray:8,2;" y2="629" x2="-939" y1="567" x1="-939"/></g><g transform="translate(0,0)"><path style="fill:none;stroke:#333333;stroke-width:2;;" d="M-840,89 C-775.5,89 -775.5,89  -711,89"/><path style="fill:rgb(51,51,51);stroke:#333333;stroke-width:2;;visibility: visible;" d="M-711,89 -728.3205080756887,79 -728.3205080756887,99Z"/><text style="font-weight:Normal; font-size: 12px; text-anchor: middle; font-family: sans-serif; fill: #333333;" class="" y="74" x="-725"/><text style="font-weight:Normal; font-size: 12px; text-anchor: start; font-family: sans-serif; fill: #333333;" class="" y="89" x="-775"/><text style="font-weight:Normal; font-size: 12px; text-anchor: middle; font-family: sans-serif; fill: #333333;" class="" y="74" x="-826"/></g></svg>